<svg width="42" height="42" viewBox="0 0 42 42" fill="none" xmlns="http://www.w3.org/2000/svg">
<path d="M21 36.75L18.4625 34.475C15.5167 31.8208 13.0813 29.5312 11.1562 27.6062C9.23125 25.6813 7.7 23.9531 6.5625 22.4219C5.425 20.8906 4.63021 19.4833 4.17812 18.2C3.72604 16.9167 3.5 15.6042 3.5 14.2625C3.5 11.5208 4.41875 9.23125 6.25625 7.39375C8.09375 5.55625 10.3833 4.6375 13.125 4.6375C14.6417 4.6375 16.0854 4.95833 17.4563 5.6C18.8271 6.24167 20.0083 7.14583 21 8.3125C21.9917 7.14583 23.1729 6.24167 24.5437 5.6C25.9146 4.95833 27.3583 4.6375 28.875 4.6375C31.6167 4.6375 33.9062 5.55625 35.7437 7.39375C37.5812 9.23125 38.5 11.5208 38.5 14.2625C38.5 15.6042 38.274 16.9167 37.8219 18.2C37.3698 19.4833 36.575 20.8906 35.4375 22.4219C34.3 23.9531 32.7687 25.6813 30.8438 27.6062C28.9188 29.5312 26.4833 31.8208 23.5375 34.475L21 36.75ZM21 32.025C23.8 29.5167 26.1042 27.3656 27.9125 25.5719C29.7208 23.7781 31.15 22.2177 32.2 20.8906C33.25 19.5635 33.9792 18.3823 34.3875 17.3469C34.7958 16.3115 35 15.2833 35 14.2625C35 12.5125 34.4167 11.0542 33.25 9.8875C32.0833 8.72083 30.625 8.1375 28.875 8.1375C27.5042 8.1375 26.2354 8.52396 25.0688 9.29687C23.9021 10.0698 23.1 11.0542 22.6625 12.25H19.3375C18.9 11.0542 18.0979 10.0698 16.9312 9.29687C15.7646 8.52396 14.4958 8.1375 13.125 8.1375C11.375 8.1375 9.91667 8.72083 8.75 9.8875C7.58333 11.0542 7 12.5125 7 14.2625C7 15.2833 7.20417 16.3115 7.6125 17.3469C8.02083 18.3823 8.75 19.5635 9.8 20.8906C10.85 22.2177 12.2792 23.7781 14.0875 25.5719C15.8958 27.3656 18.2 29.5167 21 32.025Z" fill="#E8EAED"/>
</svg>
