<svg width="42" height="42" viewBox="0 0 42 42" fill="none" xmlns="http://www.w3.org/2000/svg">
<path d="M21 36.75L18.4625 34.475C15.5167 31.8208 13.0813 29.5312 11.1562 27.6062C9.23125 25.6813 7.7 23.9531 6.5625 22.4219C5.425 20.8906 4.63021 19.4833 4.17812 18.2C3.72604 16.9167 3.5 15.6042 3.5 14.2625C3.5 11.5208 4.41875 9.23125 6.25625 7.39375C8.09375 5.55625 10.3833 4.6375 13.125 4.6375C14.6417 4.6375 16.0854 4.95833 17.4563 5.6C18.8271 6.24167 20.0083 7.14583 21 8.3125C21.9917 7.14583 23.1729 6.24167 24.5437 5.6C25.9146 4.95833 27.3583 4.6375 28.875 4.6375C31.6167 4.6375 33.9062 5.55625 35.7437 7.39375C37.5812 9.23125 38.5 11.5208 38.5 14.2625C38.5 15.6042 38.274 16.9167 37.8219 18.2C37.3698 19.4833 36.575 20.8906 35.4375 22.4219C34.3 23.9531 32.7687 25.6813 30.8438 27.6062C28.9188 29.5312 26.4833 31.8208 23.5375 34.475L21 36.75Z" fill="#E8EAED"/>
</svg>
