<svg width="42" height="42" viewBox="0 0 42 42" fill="none" xmlns="http://www.w3.org/2000/svg">
<path d="M29.75 38.5C28.2917 38.5 27.0521 37.9896 26.0312 36.9688C25.0104 35.9479 24.5 34.7083 24.5 33.25C24.5 33.075 24.5438 32.6667 24.6313 32.025L12.3375 24.85C11.8708 25.2875 11.3313 25.6302 10.7188 25.8781C10.1062 26.126 9.45 26.25 8.75 26.25C7.29167 26.25 6.05208 25.7396 5.03125 24.7188C4.01042 23.6979 3.5 22.4583 3.5 21C3.5 19.5417 4.01042 18.3021 5.03125 17.2812C6.05208 16.2604 7.29167 15.75 8.75 15.75C9.45 15.75 10.1062 15.874 10.7188 16.1219C11.3313 16.3698 11.8708 16.7125 12.3375 17.15L24.6313 9.975C24.5729 9.77083 24.5365 9.57396 24.5219 9.38438C24.5073 9.19479 24.5 8.98333 24.5 8.75C24.5 7.29167 25.0104 6.05208 26.0312 5.03125C27.0521 4.01042 28.2917 3.5 29.75 3.5C31.2083 3.5 32.4479 4.01042 33.4688 5.03125C34.4896 6.05208 35 7.29167 35 8.75C35 10.2083 34.4896 11.4479 33.4688 12.4688C32.4479 13.4896 31.2083 14 29.75 14C29.05 14 28.3937 13.876 27.7812 13.6281C27.1688 13.3802 26.6292 13.0375 26.1625 12.6L13.8687 19.775C13.9271 19.9792 13.9635 20.176 13.9781 20.3656C13.9927 20.5552 14 20.7667 14 21C14 21.2333 13.9927 21.4448 13.9781 21.6344C13.9635 21.824 13.9271 22.0208 13.8687 22.225L26.1625 29.4C26.6292 28.9625 27.1688 28.6198 27.7812 28.3719C28.3937 28.124 29.05 28 29.75 28C31.2083 28 32.4479 28.5104 33.4688 29.5312C34.4896 30.5521 35 31.7917 35 33.25C35 34.7083 34.4896 35.9479 33.4688 36.9688C32.4479 37.9896 31.2083 38.5 29.75 38.5ZM29.75 35C30.2458 35 30.6615 34.8323 30.9969 34.4969C31.3323 34.1615 31.5 33.7458 31.5 33.25C31.5 32.7542 31.3323 32.3385 30.9969 32.0031C30.6615 31.6677 30.2458 31.5 29.75 31.5C29.2542 31.5 28.8385 31.6677 28.5031 32.0031C28.1677 32.3385 28 32.7542 28 33.25C28 33.7458 28.1677 34.1615 28.5031 34.4969C28.8385 34.8323 29.2542 35 29.75 35ZM8.75 22.75C9.24583 22.75 9.66146 22.5823 9.99687 22.2469C10.3323 21.9115 10.5 21.4958 10.5 21C10.5 20.5042 10.3323 20.0885 9.99687 19.7531C9.66146 19.4177 9.24583 19.25 8.75 19.25C8.25417 19.25 7.83854 19.4177 7.50312 19.7531C7.16771 20.0885 7 20.5042 7 21C7 21.4958 7.16771 21.9115 7.50312 22.2469C7.83854 22.5823 8.25417 22.75 8.75 22.75ZM29.75 10.5C30.2458 10.5 30.6615 10.3323 30.9969 9.99687C31.3323 9.66146 31.5 9.24583 31.5 8.75C31.5 8.25417 31.3323 7.83854 30.9969 7.50312C30.6615 7.16771 30.2458 7 29.75 7C29.2542 7 28.8385 7.16771 28.5031 7.50312C28.1677 7.83854 28 8.25417 28 8.75C28 9.24583 28.1677 9.66146 28.5031 9.99687C28.8385 10.3323 29.2542 10.5 29.75 10.5Z" fill="#E8EAED"/>
</svg>
